<svg width="648" height="494" viewBox="0 0 648 494" fill="none" xmlns="http://www.w3.org/2000/svg">
<g clip-path="url(#clip0_195_843)">
<path d="M315.144 452.329C419.092 452.329 503.358 368.99 503.358 266.185C503.358 163.381 419.092 80.0411 315.144 80.0411C211.197 80.0411 126.931 163.381 126.931 266.185C126.931 368.99 211.197 452.329 315.144 452.329Z" fill="#E7E7E7"/>
<path fill-rule="evenodd" clip-rule="evenodd" d="M465.032 357.808C467.745 356.844 470.6 355.564 472.802 353.71C475.417 351.507 476.481 348.671 477.195 345.686C478.112 341.85 478.478 337.765 479.59 333.923C480.002 332.496 480.794 331.957 481.134 331.718C481.993 331.113 482.862 330.951 483.679 331.012C484.647 331.082 485.977 331.447 486.852 333.065C486.977 333.297 487.139 333.649 487.248 334.133C487.328 334.487 487.379 335.595 487.464 336.052C487.674 337.177 487.85 338.302 488.016 339.434C488.566 343.199 488.883 346.398 490.621 349.857C492.981 354.553 495.345 357.427 498.551 358.7C501.651 359.931 505.358 359.699 510.094 358.734C510.544 358.625 510.99 358.532 511.431 358.456C513.519 358.092 515.516 359.458 515.926 361.531C516.336 363.603 515.009 365.622 512.939 366.077C512.507 366.172 512.082 366.262 511.661 366.344C505.261 367.923 497.852 373.559 493.547 378.493C492.22 380.014 490.277 384.268 488.295 386.981C486.832 388.983 485.188 390.302 483.808 390.769C482.884 391.083 482.104 391.034 481.46 390.876C480.524 390.646 479.748 390.141 479.152 389.337C478.828 388.897 478.527 388.308 478.383 387.556C478.315 387.194 478.307 386.274 478.308 385.858C477.904 384.473 477.41 383.121 477.05 381.724C476.191 378.39 474.505 376.28 472.503 373.492C470.63 370.882 468.618 369.243 465.669 367.934C465.286 367.841 462.19 367.086 461.097 366.652C459.5 366.016 458.739 364.952 458.463 364.378C457.994 363.406 457.946 362.556 458.039 361.847C458.178 360.801 458.649 359.906 459.485 359.183C460.003 358.734 460.776 358.297 461.811 358.084C462.611 357.918 464.734 357.822 465.032 357.808ZM483.191 352.375C483.334 352.693 483.487 353.013 483.649 353.337C487.105 360.215 490.969 364.055 495.666 365.919L495.823 365.979C492.681 368.304 489.837 370.903 487.663 373.394C486.768 374.42 485.583 376.55 484.303 378.735C483.139 374.967 481.237 372.303 478.845 368.969C477.017 366.425 475.102 364.511 472.749 362.95C474.575 362.016 476.317 360.922 477.834 359.645C480.36 357.517 482.031 355.052 483.191 352.375Z" fill="#23CD97"/>
<ellipse cx="208.914" cy="49.816" rx="8.91394" ry="8.81593" fill="#23CD97"/>
<g filter="url(#filter0_dddddd_195_843)">
<rect x="233" y="161" width="324" height="115.513" rx="39.3608" fill="#2F2F57"/>
</g>
<rect x="366.744" y="200.767" width="109.256" height="15.1493" rx="7.57465" fill="#CCC6D9"/>
<rect x="261.256" y="223.491" width="215.294" height="15.1493" rx="7.57465" fill="white"/>
<ellipse cx="515.558" cy="219.704" rx="18.8372" ry="18.9366" fill="white"/>
<g filter="url(#filter1_dddddd_195_843)">
<path d="M219.35 121.613C207.739 118.378 195.547 117.813 183.687 119.96C171.827 122.107 160.606 126.911 150.866 134.01C141.127 141.11 133.12 150.323 127.447 160.957C121.774 171.591 118.581 183.371 118.107 195.415L181.953 197.936C188.764 170.096 201.53 144.06 219.35 121.613Z" fill="#23CD97"/>
<path d="M294.312 239.695C297.388 228.043 297.788 215.845 295.481 204.017C271.695 220.013 244.742 230.674 216.448 235.267L213.927 299.112C225.969 299.589 237.963 297.335 249.01 292.518C260.057 287.702 269.871 280.448 277.716 271.3C285.562 262.152 291.235 251.347 294.312 239.695Z" fill="#23CD97"/>
<path fill-rule="evenodd" clip-rule="evenodd" d="M295.481 204.017C321.615 186.515 343.239 163.079 358.585 135.624C373.931 108.168 382.565 77.4718 383.781 46.0421C352.355 44.7786 321.077 50.9664 292.499 64.1002C263.922 77.2341 238.856 96.9413 219.35 121.613C201.53 144.06 188.764 170.096 181.953 197.936C181.617 199.305 181.31 200.678 181.004 202.055C190.096 214.499 200.59 225.856 212.28 235.901C213.671 235.704 215.061 235.492 216.448 235.267C244.742 230.674 271.695 220.013 295.481 204.017Z" fill="#23CD97"/>
<path d="M295.481 204.017C297.788 215.845 297.388 228.043 294.312 239.695C291.235 251.347 285.562 262.152 277.716 271.3C269.871 280.448 260.057 287.702 249.01 292.518C237.963 297.335 225.969 299.589 213.927 299.112L216.448 235.267M295.481 204.017C321.615 186.515 343.239 163.079 358.585 135.624C373.931 108.168 382.565 77.4718 383.781 46.0421C352.355 44.7786 321.077 50.9664 292.499 64.1002C263.922 77.2341 238.856 96.9413 219.35 121.613M295.481 204.017C271.695 220.013 244.742 230.674 216.448 235.267M216.448 235.267C215.061 235.492 213.671 235.704 212.28 235.901C200.59 225.856 190.096 214.499 181.004 202.055C181.31 200.678 181.617 199.305 181.953 197.936M219.35 121.613C207.739 118.378 195.547 117.813 183.687 119.96C171.827 122.107 160.606 126.911 150.866 134.01C141.127 141.11 133.12 150.323 127.447 160.957C121.774 171.591 118.581 183.371 118.107 195.415L181.953 197.936M219.35 121.613C201.53 144.06 188.764 170.096 181.953 197.936" stroke="white" stroke-width="6" stroke-linecap="round" stroke-linejoin="round"/>
<path d="M304.005 146.945C307.894 143.351 310.197 138.359 310.406 133.068C310.615 127.776 308.713 122.618 305.119 118.729C301.525 114.84 296.533 112.537 291.242 112.328C285.95 112.119 280.792 114.021 276.903 117.615C273.014 121.209 270.711 126.201 270.502 131.492C270.293 136.784 272.195 141.942 275.789 145.831C279.383 149.72 284.375 152.023 289.666 152.232C294.958 152.441 300.116 150.539 304.005 146.945Z" fill="#23CD97"/>
<path d="M304.005 146.945C307.894 143.351 310.197 138.359 310.406 133.068C310.615 127.776 308.713 122.618 305.119 118.729C301.525 114.84 296.533 112.537 291.242 112.328C285.95 112.119 280.792 114.021 276.903 117.615C273.014 121.209 270.711 126.201 270.502 131.492C270.293 136.784 272.195 141.942 275.789 145.831C279.383 149.72 284.375 152.023 289.666 152.232C294.958 152.441 300.116 150.539 304.005 146.945Z" stroke="white" stroke-width="26.623" stroke-linecap="round" stroke-linejoin="round"/>
<path d="M154.817 225.358L154.817 225.357C154.653 224.199 153.581 223.387 152.416 223.558C151.257 223.725 150.454 224.805 150.617 225.961C151.587 232.844 154.714 238.495 159.927 243.009C160.817 243.783 162.16 243.668 162.92 242.786L162.921 242.786C163.683 241.9 163.596 240.557 162.704 239.79C158.276 235.956 155.637 231.196 154.817 225.358Z" fill="#2F2F57" stroke="#2F2F57" stroke-width="1.64003"/>
<path d="M138.785 297.312L138.785 297.312C140.163 296.209 140.693 294.945 140.654 293.713C140.618 292.54 140.035 291.445 139.136 290.537L139.136 290.537C138.279 289.672 137.086 288.942 135.912 288.386C134.908 287.911 133.873 287.543 132.995 287.32C132.528 286.049 132.169 284.737 131.918 283.401C129.88 272.544 137.507 261.253 150.787 255.775C152.96 254.879 155.831 254.729 159.164 255.135C162.483 255.539 166.176 256.483 169.942 257.692C180.141 260.965 190.612 266.253 195.571 268.757C196.316 269.133 196.936 269.446 197.413 269.681L197.414 269.681C197.888 269.913 198.285 270.075 198.591 270.181C198.744 270.235 198.878 270.276 198.992 270.305C199.08 270.327 199.219 270.36 199.355 270.363C200.361 270.389 200.905 269.823 201.168 269.45L201.173 269.443C201.537 268.916 201.648 268.382 201.625 267.901L201.625 267.896C201.589 267.236 201.291 266.592 200.685 266.089L200.68 266.085C200.347 265.814 199.889 265.586 199.466 265.404L199.458 265.401C199.368 265.363 199.278 265.33 199.202 265.303C199.184 265.297 199.168 265.291 199.151 265.285C199.094 265.264 199.047 265.247 199 265.229C198.942 265.207 198.904 265.19 198.879 265.177C198.875 265.175 198.871 265.173 198.869 265.172C197.917 264.355 197.013 263.492 196.089 262.61C195.953 262.48 195.817 262.35 195.68 262.22L195.679 262.219C192.133 258.857 189.037 255.187 186.025 251.289L186.025 251.289C185.216 250.242 184.402 249.195 183.587 248.148C174.687 236.705 165.681 225.125 161.466 211.254L161.466 211.254C161.126 210.136 159.942 209.497 158.816 209.847C157.695 210.191 157.073 211.381 157.407 212.498L157.408 212.501C161.836 227.078 171.281 239.234 180.387 250.954C181.152 251.937 181.914 252.918 182.67 253.897L182.67 253.897C184.374 256.101 186.114 258.248 187.95 260.318C182.228 257.675 175.234 254.741 168.552 252.824C164.864 251.767 161.246 251.027 157.95 250.795C154.663 250.563 151.64 250.833 149.181 251.847L149.18 251.847C134.156 258.045 125.316 271.246 127.751 284.196L127.751 284.197C127.946 285.229 128.194 286.254 128.5 287.262C117.488 288.634 109.303 297.708 109.279 309.045C109.275 310.221 110.225 311.171 111.396 311.171L111.396 311.171L111.401 311.171C112.57 311.164 113.516 310.215 113.52 309.043L113.52 309.042C113.541 299.521 120.674 292.008 130.113 291.375C130.741 292.654 131.472 293.887 132.312 295.049C132.739 295.641 133.743 296.845 134.866 297.479C136.104 298.182 137.552 298.298 138.785 297.312Z" fill="#2F2F57" stroke="#2F2F57" stroke-width="1.64003"/>
</g>
<g filter="url(#filter2_dddddd_195_843)">
<rect x="97" y="311" width="324" height="115.513" rx="39.3608" fill="white"/>
</g>
<rect x="178" y="350.767" width="109.256" height="15.1493" rx="7.57465" fill="#23CD97"/>
<rect x="178" y="373.491" width="215.294" height="15.1493" rx="7.57465" fill="#D4D4D4"/>
<ellipse cx="144.093" cy="369.703" rx="18.8372" ry="18.9366" fill="#23CD97"/>
</g>
<defs>
<filter id="filter0_dddddd_195_843" x="66.0665" y="105.776" width="549.807" height="341.321" filterUnits="userSpaceOnUse" color-interpolation-filters="sRGB">
<feFlood flood-opacity="0" result="BackgroundImageFix"/>
<feColorMatrix in="SourceAlpha" type="matrix" values="0 0 0 0 0 0 0 0 0 0 0 0 0 0 0 0 0 0 127 0" result="hardAlpha"/>
<feOffset dx="-1.00055" dy="1.06814"/>
<feGaussianBlur stdDeviation="2.22148"/>
<feColorMatrix type="matrix" values="0 0 0 0 0 0 0 0 0 0 0 0 0 0 0 0 0 0 0.01 0"/>
<feBlend mode="normal" in2="BackgroundImageFix" result="effect1_dropShadow_195_843"/>
<feColorMatrix in="SourceAlpha" type="matrix" values="0 0 0 0 0 0 0 0 0 0 0 0 0 0 0 0 0 0 127 0" result="hardAlpha"/>
<feOffset dx="-4.40243" dy="4.6998"/>
<feGaussianBlur stdDeviation="4.59978"/>
<feColorMatrix type="matrix" values="0 0 0 0 0 0 0 0 0 0 0 0 0 0 0 0 0 0 0.01 0"/>
<feBlend mode="normal" in2="effect1_dropShadow_195_843" result="effect2_dropShadow_195_843"/>
<feColorMatrix in="SourceAlpha" type="matrix" values="0 0 0 0 0 0 0 0 0 0 0 0 0 0 0 0 0 0 127 0" result="hardAlpha"/>
<feOffset dx="-10.806" dy="11.5359"/>
<feGaussianBlur stdDeviation="9.17342"/>
<feColorMatrix type="matrix" values="0 0 0 0 0 0 0 0 0 0 0 0 0 0 0 0 0 0 0.01 0"/>
<feBlend mode="normal" in2="effect2_dropShadow_195_843" result="effect3_dropShadow_195_843"/>
<feColorMatrix in="SourceAlpha" type="matrix" values="0 0 0 0 0 0 0 0 0 0 0 0 0 0 0 0 0 0 127 0" result="hardAlpha"/>
<feOffset dx="-20.8115" dy="22.2173"/>
<feGaussianBlur stdDeviation="17.9809"/>
<feColorMatrix type="matrix" values="0 0 0 0 0 0 0 0 0 0 0 0 0 0 0 0 0 0 0.0121481 0"/>
<feBlend mode="normal" in2="effect3_dropShadow_195_843" result="effect4_dropShadow_195_843"/>
<feColorMatrix in="SourceAlpha" type="matrix" values="0 0 0 0 0 0 0 0 0 0 0 0 0 0 0 0 0 0 127 0" result="hardAlpha"/>
<feOffset dx="-35.0194" dy="37.3848"/>
<feGaussianBlur stdDeviation="33.0609"/>
<feColorMatrix type="matrix" values="0 0 0 0 0 0 0 0 0 0 0 0 0 0 0 0 0 0 0.0151852 0"/>
<feBlend mode="normal" in2="effect4_dropShadow_195_843" result="effect5_dropShadow_195_843"/>
<feColorMatrix in="SourceAlpha" type="matrix" values="0 0 0 0 0 0 0 0 0 0 0 0 0 0 0 0 0 0 127 0" result="hardAlpha"/>
<feOffset dx="-54.0299" dy="57.6794"/>
<feGaussianBlur stdDeviation="56.4518"/>
<feColorMatrix type="matrix" values="0 0 0 0 0 0 0 0 0 0 0 0 0 0 0 0 0 0 0.02 0"/>
<feBlend mode="normal" in2="effect5_dropShadow_195_843" result="effect6_dropShadow_195_843"/>
<feBlend mode="normal" in="SourceGraphic" in2="effect6_dropShadow_195_843" result="shape"/>
</filter>
<filter id="filter1_dddddd_195_843" x="-99.9335" y="-56.2241" width="557.637" height="557.638" filterUnits="userSpaceOnUse" color-interpolation-filters="sRGB">
<feFlood flood-opacity="0" result="BackgroundImageFix"/>
<feColorMatrix in="SourceAlpha" type="matrix" values="0 0 0 0 0 0 0 0 0 0 0 0 0 0 0 0 0 0 127 0" result="hardAlpha"/>
<feOffset dx="-1.00055" dy="1.06814"/>
<feGaussianBlur stdDeviation="2.22148"/>
<feColorMatrix type="matrix" values="0 0 0 0 0 0 0 0 0 0 0 0 0 0 0 0 0 0 0.01 0"/>
<feBlend mode="normal" in2="BackgroundImageFix" result="effect1_dropShadow_195_843"/>
<feColorMatrix in="SourceAlpha" type="matrix" values="0 0 0 0 0 0 0 0 0 0 0 0 0 0 0 0 0 0 127 0" result="hardAlpha"/>
<feOffset dx="-4.40243" dy="4.6998"/>
<feGaussianBlur stdDeviation="4.59978"/>
<feColorMatrix type="matrix" values="0 0 0 0 0 0 0 0 0 0 0 0 0 0 0 0 0 0 0.01 0"/>
<feBlend mode="normal" in2="effect1_dropShadow_195_843" result="effect2_dropShadow_195_843"/>
<feColorMatrix in="SourceAlpha" type="matrix" values="0 0 0 0 0 0 0 0 0 0 0 0 0 0 0 0 0 0 127 0" result="hardAlpha"/>
<feOffset dx="-10.806" dy="11.5359"/>
<feGaussianBlur stdDeviation="9.17342"/>
<feColorMatrix type="matrix" values="0 0 0 0 0 0 0 0 0 0 0 0 0 0 0 0 0 0 0.01 0"/>
<feBlend mode="normal" in2="effect2_dropShadow_195_843" result="effect3_dropShadow_195_843"/>
<feColorMatrix in="SourceAlpha" type="matrix" values="0 0 0 0 0 0 0 0 0 0 0 0 0 0 0 0 0 0 127 0" result="hardAlpha"/>
<feOffset dx="-20.8115" dy="22.2173"/>
<feGaussianBlur stdDeviation="17.9809"/>
<feColorMatrix type="matrix" values="0 0 0 0 0 0 0 0 0 0 0 0 0 0 0 0 0 0 0.0121481 0"/>
<feBlend mode="normal" in2="effect3_dropShadow_195_843" result="effect4_dropShadow_195_843"/>
<feColorMatrix in="SourceAlpha" type="matrix" values="0 0 0 0 0 0 0 0 0 0 0 0 0 0 0 0 0 0 127 0" result="hardAlpha"/>
<feOffset dx="-35.0194" dy="37.3848"/>
<feGaussianBlur stdDeviation="33.0609"/>
<feColorMatrix type="matrix" values="0 0 0 0 0 0 0 0 0 0 0 0 0 0 0 0 0 0 0.0151852 0"/>
<feBlend mode="normal" in2="effect4_dropShadow_195_843" result="effect5_dropShadow_195_843"/>
<feColorMatrix in="SourceAlpha" type="matrix" values="0 0 0 0 0 0 0 0 0 0 0 0 0 0 0 0 0 0 127 0" result="hardAlpha"/>
<feOffset dx="-54.0299" dy="57.6794"/>
<feGaussianBlur stdDeviation="56.4518"/>
<feColorMatrix type="matrix" values="0 0 0 0 0 0 0 0 0 0 0 0 0 0 0 0 0 0 0.02 0"/>
<feBlend mode="normal" in2="effect5_dropShadow_195_843" result="effect6_dropShadow_195_843"/>
<feBlend mode="normal" in="SourceGraphic" in2="effect6_dropShadow_195_843" result="shape"/>
</filter>
<filter id="filter2_dddddd_195_843" x="-69.9335" y="255.776" width="549.807" height="341.321" filterUnits="userSpaceOnUse" color-interpolation-filters="sRGB">
<feFlood flood-opacity="0" result="BackgroundImageFix"/>
<feColorMatrix in="SourceAlpha" type="matrix" values="0 0 0 0 0 0 0 0 0 0 0 0 0 0 0 0 0 0 127 0" result="hardAlpha"/>
<feOffset dx="-1.00055" dy="1.06814"/>
<feGaussianBlur stdDeviation="2.22148"/>
<feColorMatrix type="matrix" values="0 0 0 0 0 0 0 0 0 0 0 0 0 0 0 0 0 0 0.01 0"/>
<feBlend mode="normal" in2="BackgroundImageFix" result="effect1_dropShadow_195_843"/>
<feColorMatrix in="SourceAlpha" type="matrix" values="0 0 0 0 0 0 0 0 0 0 0 0 0 0 0 0 0 0 127 0" result="hardAlpha"/>
<feOffset dx="-4.40243" dy="4.6998"/>
<feGaussianBlur stdDeviation="4.59978"/>
<feColorMatrix type="matrix" values="0 0 0 0 0 0 0 0 0 0 0 0 0 0 0 0 0 0 0.01 0"/>
<feBlend mode="normal" in2="effect1_dropShadow_195_843" result="effect2_dropShadow_195_843"/>
<feColorMatrix in="SourceAlpha" type="matrix" values="0 0 0 0 0 0 0 0 0 0 0 0 0 0 0 0 0 0 127 0" result="hardAlpha"/>
<feOffset dx="-10.806" dy="11.5359"/>
<feGaussianBlur stdDeviation="9.17342"/>
<feColorMatrix type="matrix" values="0 0 0 0 0 0 0 0 0 0 0 0 0 0 0 0 0 0 0.01 0"/>
<feBlend mode="normal" in2="effect2_dropShadow_195_843" result="effect3_dropShadow_195_843"/>
<feColorMatrix in="SourceAlpha" type="matrix" values="0 0 0 0 0 0 0 0 0 0 0 0 0 0 0 0 0 0 127 0" result="hardAlpha"/>
<feOffset dx="-20.8115" dy="22.2173"/>
<feGaussianBlur stdDeviation="17.9809"/>
<feColorMatrix type="matrix" values="0 0 0 0 0 0 0 0 0 0 0 0 0 0 0 0 0 0 0.0121481 0"/>
<feBlend mode="normal" in2="effect3_dropShadow_195_843" result="effect4_dropShadow_195_843"/>
<feColorMatrix in="SourceAlpha" type="matrix" values="0 0 0 0 0 0 0 0 0 0 0 0 0 0 0 0 0 0 127 0" result="hardAlpha"/>
<feOffset dx="-35.0194" dy="37.3848"/>
<feGaussianBlur stdDeviation="33.0609"/>
<feColorMatrix type="matrix" values="0 0 0 0 0 0 0 0 0 0 0 0 0 0 0 0 0 0 0.0151852 0"/>
<feBlend mode="normal" in2="effect4_dropShadow_195_843" result="effect5_dropShadow_195_843"/>
<feColorMatrix in="SourceAlpha" type="matrix" values="0 0 0 0 0 0 0 0 0 0 0 0 0 0 0 0 0 0 127 0" result="hardAlpha"/>
<feOffset dx="-54.0299" dy="57.6794"/>
<feGaussianBlur stdDeviation="56.4518"/>
<feColorMatrix type="matrix" values="0 0 0 0 0 0 0 0 0 0 0 0 0 0 0 0 0 0 0.02 0"/>
<feBlend mode="normal" in2="effect5_dropShadow_195_843" result="effect6_dropShadow_195_843"/>
<feBlend mode="normal" in="SourceGraphic" in2="effect6_dropShadow_195_843" result="shape"/>
</filter>
<clipPath id="clip0_195_843">
<rect width="648" height="494" fill="white"/>
</clipPath>
</defs>
</svg>
